<?xml version="1.0" standalone="no"?>
<!DOCTYPE svg PUBLIC "-//W3C//DTD SVG 20010904//EN"
 "http://www.w3.org/TR/2001/REC-SVG-20010904/DTD/svg10.dtd">
<svg version="1.0" xmlns="http://www.w3.org/2000/svg"
 width="300.000000pt" height="300.000000pt" viewBox="0 0 300.000000 300.000000"
 preserveAspectRatio="xMidYMid meet">

<g transform="translate(0.000000,300.000000) scale(0.100000,-0.100000)"
fill="#000000" stroke="none">
<path d="M2090 2208 c-53 -83 -168 -222 -340 -412 -68 -76 -142 -161 -164
-189 -58 -77 -104 -182 -113 -257 l-9 -65 -38 79 c-45 93 -131 184 -246 261
-68 45 -643 345 -662 345 -14 0 -8 -82 12 -174 11 -49 18 -91 16 -93 -2 -2
-57 12 -123 32 -66 19 -125 35 -131 35 -19 0 -14 -23 24 -112 19 -46 38 -89
41 -96 5 -11 -10 -13 -68 -11 -82 3 -107 -4 -88 -27 9 -11 6 -18 -12 -33 -21
-17 -22 -23 -12 -40 10 -15 10 -21 0 -24 -9 -3 -8 -12 4 -34 15 -28 15 -31 -3
-42 -14 -9 -16 -16 -8 -31 7 -13 7 -21 -1 -26 -6 -3 -9 -14 -6 -24 3 -11 -1
-21 -9 -24 -10 -4 -12 -17 -8 -50 7 -49 -1 -62 -47 -83 -35 -15 -64 -76 -49
-103 25 -47 -27 -45 1445 -45 l1390 0 28 27 c19 19 27 36 27 62 0 28 -6 39
-27 53 -42 27 -63 56 -51 70 6 8 6 19 -2 33 -6 12 -9 28 -6 36 8 20 -3 44 -20
44 -17 0 -18 12 -2 28 22 22 -2 25 -84 8 -129 -25 -126 -35 -51 127 70 153 80
181 66 190 -5 4 -61 -9 -124 -28 -63 -19 -117 -35 -122 -35 -4 0 20 54 53 120
75 149 77 173 10 135 -44 -25 -52 -19 -30 26 12 23 19 48 16 56 -5 12 -12 11
-42 -8 -44 -27 -368 -178 -372 -174 -2 2 1 56 7 122 12 131 2 415 -14 419 -5
2 -30 -29 -55 -68z m36 -303 c-2 -82 -8 -160 -13 -172 -5 -13 -42 -39 -98 -68
-203 -106 -407 -263 -494 -380 l-22 -30 6 64 c13 130 71 228 261 441 212 238
311 361 336 416 12 27 13 25 21 -46 5 -41 6 -142 3 -225z m-1191 -188 c83 -44
184 -102 225 -131 77 -53 171 -140 190 -177 13 -24 19 -27 -74 35 -109 71
-231 121 -422 171 -54 15 -133 36 -174 46 -41 11 -78 26 -82 32 -9 15 -48 182
-48 208 0 20 -2 21 385 -184z m1565 113 c-24 -46 -23 -46 -335 -172 -110 -44
-217 -89 -237 -99 -47 -24 -60 -24 -28 -1 22 16 596 307 613 310 4 1 -2 -16
-13 -38z m63 -57 c-4 -10 -24 -53 -45 -96 -21 -43 -38 -81 -38 -86 0 -5 -6
-13 -13 -19 -14 -12 -252 -75 -462 -123 -175 -39 -286 -79 -367 -131 l-63 -40
35 37 c80 84 235 167 556 300 113 47 247 105 297 130 106 50 109 51 100 28z
m-2105 -83 c70 -21 196 -57 281 -80 324 -85 485 -159 613 -278 82 -76 75 -83
-30 -30 -109 55 -257 105 -436 148 -131 32 -426 90 -457 90 -13 0 -28 18 -48
58 -38 75 -61 132 -55 132 3 0 63 -18 132 -40z m2196 -237 l-63 -148 -48 -7
c-78 -12 -377 -28 -527 -28 -154 0 -323 -21 -399 -50 l-50 -19 26 27 c37 39
126 90 205 119 37 14 169 49 293 78 228 54 358 90 524 144 50 17 93 30 96 30
4 1 -22 -65 -57 -146z m-2252 52 c257 -30 452 -71 663 -140 129 -42 302 -123
330 -156 21 -24 10 -20 -38 13 -35 25 -146 70 -160 65 -6 -2 24 -22 66 -45 42
-24 77 -44 77 -47 0 -2 -25 7 -56 21 -65 29 -225 77 -232 69 -3 -2 4 -7 14
-11 10 -3 58 -22 107 -42 90 -36 113 -55 35 -29 -70 24 -285 75 -398 94 -58
10 -109 23 -115 29 -12 15 -122 39 -260 59 l-100 14 93 -5 c176 -9 79 26 -115
42 -46 4 -83 11 -83 16 0 5 8 7 18 4 9 -2 62 -7 117 -11 55 -4 156 -13 225
-20 69 -7 127 -12 129 -9 12 12 -144 42 -353 67 -61 7 -101 17 -104 25 -2 6
-1 12 1 12 3 0 65 -7 139 -15z m-129 -102 c-7 -2 -21 -2 -30 0 -10 3 -4 5 12
5 17 0 24 -2 18 -5z m233 -59 c134 -14 192 -24 136 -24 -29 0 -353 30 -372 34
-43 10 106 4 236 -10z m-23 -50 c180 -9 597 -67 583 -81 -2 -2 -56 3 -121 12
-64 9 -119 14 -122 11 -8 -7 5 -11 120 -31 54 -10 96 -19 93 -22 -2 -3 -63 3
-135 12 -122 15 -205 16 -116 1 22 -4 63 -13 90 -19 l50 -12 -85 -5 -85 -5 70
-9 c162 -20 139 -24 -137 -25 -159 -1 -288 1 -288 4 0 2 15 9 33 14 27 8 20 9
-48 11 -44 1 -71 4 -60 7 52 13 33 23 -45 24 -82 2 -79 2 75 19 88 10 162 19
165 20 12 5 -190 29 -249 29 -35 1 -62 3 -60 5 4 4 99 13 169 16 32 2 33 3 10
10 -14 4 -55 8 -92 9 -41 1 -68 5 -68 12 0 7 23 8 68 5 37 -3 120 -8 185 -12z
m2277 -4 c-8 -5 -28 -9 -45 -9 -29 1 -29 1 -5 9 14 4 34 8 45 9 16 1 17 -1 5
-9z m45 -40 c-3 -5 -32 -9 -63 -8 l-57 1 45 7 c69 11 82 11 75 0z m-210 -11
c48 -1 61 -3 40 -8 -59 -13 -5 -23 85 -15 59 4 90 3 90 -3 0 -7 -66 -13 -167
-17 -193 -8 -356 -16 -428 -22 -27 -2 -129 -6 -225 -9 -169 -4 -173 -4 -110
10 36 7 78 14 94 14 16 1 26 4 22 8 -9 10 -181 5 -266 -7 -79 -11 -90 -6 -18
9 99 22 648 54 763 45 28 -2 82 -4 120 -5z m178 -76 c-24 -2 -62 -2 -85 0 -24
2 -5 4 42 4 47 0 66 -2 43 -4z m-111 -21 c207 -18 97 -24 -292 -18 -222 4
-406 8 -408 10 -3 4 24 7 188 20 67 5 401 -2 512 -12z m238 -76 c0 -10 -37
-14 -152 -19 -218 -10 -2658 -9 -2658 1 0 4 5 13 10 18 8 8 448 11 1405 12
1141 1 1395 -1 1395 -12z"/>
</g>
</svg>
